<svg xmlns="http://www.w3.org/2000/svg" viewBox="0 0 320 400" fill="none" font-family="system-ui,-apple-system,sans-serif">
<defs>
  <filter id="ps" x="-10%" y="-10%" width="120%" height="120%">
    <feGaussianBlur in="SourceAlpha" stdDeviation="3"/>
    <feOffset dx="0" dy="3"/>
    <feComponentTransfer><feFuncA type="linear" slope="0.18"/></feComponentTransfer>
    <feMerge><feMergeNode/><feMergeNode in="SourceGraphic"/></feMerge>
  </filter>
  <marker id="arr" viewBox="0 0 10 10" refX="8" refY="5" markerWidth="6" markerHeight="6" orient="auto-start-reverse">
    <path d="M 0 0 L 10 5 L 0 10 z" fill="#6366f1"/>
  </marker>
  <marker id="arrT" viewBox="0 0 10 10" refX="8" refY="5" markerWidth="6" markerHeight="6" orient="auto-start-reverse">
    <path d="M 0 0 L 10 5 L 0 10 z" fill="#14b8a6"/>
  </marker>
  <linearGradient id="foldTri" x1="0" y1="0" x2="1" y2="1">
    <stop offset="0" stop-color="#fff7ed"/>
    <stop offset="1" stop-color="#fed7aa" stop-opacity="0.7"/>
  </linearGradient>
  <linearGradient id="bWingL" x1="0.5" y1="0" x2="0.2" y2="1">
    <stop offset="0" stop-color="hsl(32, 50%, 58%)"/>
    <stop offset="0.55" stop-color="hsl(32, 55%, 43%)"/>
    <stop offset="1" stop-color="hsl(32, 60%, 28%)"/>
  </linearGradient>
  <linearGradient id="bWingR" x1="0.5" y1="0" x2="0.8" y2="1">
    <stop offset="0" stop-color="hsl(32, 55%, 43%)"/>
    <stop offset="0.5" stop-color="hsl(32, 60%, 32%)"/>
    <stop offset="1" stop-color="hsl(32, 65%, 20%)"/>
  </linearGradient>
</defs>

<rect x="80" y="30" width="160" height="340" rx="3" fill="#fefaf4" stroke="#d6c9ae" stroke-width="1.5" filter="url(#ps)"/>
<path d="M84 40 L84 34 L90 34" stroke="#d6c9ae" stroke-width="1.2" stroke-linecap="round"/>
<path d="M230 34 L236 34 L236 40" stroke="#d6c9ae" stroke-width="1.2" stroke-linecap="round"/>
<path d="M84 360 L84 366 L90 366" stroke="#d6c9ae" stroke-width="1.2" stroke-linecap="round"/>
<path d="M230 366 L236 366 L236 360" stroke="#d6c9ae" stroke-width="1.2" stroke-linecap="round"/>
<text x="160" y="195" text-anchor="middle" font-size="15" font-weight="500" fill="#a8a29e" letter-spacing="1.5">FEUILLE A4</text>
<text x="160" y="218" text-anchor="middle" font-size="12" fill="#c7b79a" letter-spacing="0.5">Mode portrait</text>
</svg>
