<svg xmlns="http://www.w3.org/2000/svg" viewBox="0 0 320 400" fill="none" font-family="system-ui,-apple-system,sans-serif">
<defs>
  <filter id="ps" x="-10%" y="-10%" width="120%" height="120%">
    <feGaussianBlur in="SourceAlpha" stdDeviation="3"/>
    <feOffset dx="0" dy="3"/>
    <feComponentTransfer><feFuncA type="linear" slope="0.18"/></feComponentTransfer>
    <feMerge><feMergeNode/><feMergeNode in="SourceGraphic"/></feMerge>
  </filter>
  <marker id="arr" viewBox="0 0 10 10" refX="8" refY="5" markerWidth="6" markerHeight="6" orient="auto-start-reverse">
    <path d="M 0 0 L 10 5 L 0 10 z" fill="#6366f1"/>
  </marker>
  <marker id="arrT" viewBox="0 0 10 10" refX="8" refY="5" markerWidth="6" markerHeight="6" orient="auto-start-reverse">
    <path d="M 0 0 L 10 5 L 0 10 z" fill="#14b8a6"/>
  </marker>
  <linearGradient id="foldTri" x1="0" y1="0" x2="1" y2="1">
    <stop offset="0" stop-color="#fff7ed"/>
    <stop offset="1" stop-color="#fed7aa" stop-opacity="0.7"/>
  </linearGradient>
  <linearGradient id="bWingL" x1="0.5" y1="0" x2="0.2" y2="1">
    <stop offset="0" stop-color="hsl(32, 50%, 58%)"/>
    <stop offset="0.55" stop-color="hsl(32, 55%, 43%)"/>
    <stop offset="1" stop-color="hsl(32, 60%, 28%)"/>
  </linearGradient>
  <linearGradient id="bWingR" x1="0.5" y1="0" x2="0.8" y2="1">
    <stop offset="0" stop-color="hsl(32, 55%, 43%)"/>
    <stop offset="0.5" stop-color="hsl(32, 60%, 32%)"/>
    <stop offset="1" stop-color="hsl(32, 65%, 20%)"/>
  </linearGradient>
</defs>

<polygon points="80,90 240,90 240,370 80,370" fill="#fefaf4" stroke="#d6c9ae" stroke-width="1.5" filter="url(#ps)"/>
<polygon points="112,90 208,90 160,180" fill="#fef3c7" stroke="#d6c9ae" stroke-width="1" opacity="0.45"/>
<line x1="160" y1="90" x2="160" y2="370" stroke="#a8a29e" stroke-width="1" stroke-dasharray="3 3" stroke-linecap="round" opacity="0.7"/>
<!-- TL already folded -->
<polygon points="80,90 160,90 160,170" fill="url(#foldTri)" stroke="#c4a07c" stroke-width="1"/>
<line x1="80" y1="90" x2="160" y2="170" stroke="#c4a07c" stroke-width="1"/>
<!-- TR folding now -->
<polygon points="240,90 160,90 160,170" fill="url(#foldTri)" stroke="#c4a07c" stroke-width="1.2"/>
<line x1="240" y1="90" x2="160" y2="170" stroke="#3b82f6" stroke-width="1.6" stroke-dasharray="5 3" stroke-linecap="round"/>
<path d="M 225 110 Q 190 105 170 155" stroke="#6366f1" stroke-width="2.5" stroke-linecap="round" fill="none" marker-end="url(#arr)"/>
<!-- Small protruding triangle at bottom of meeting point (the folded point's tip) -->
<polygon points="148,170 172,170 160,188" fill="#fef3c7" stroke="#c4a07c" stroke-width="1"/>
<circle cx="160" cy="188" r="3.5" fill="none" stroke="#dc2626" stroke-width="1.5" stroke-dasharray="2 2"/>
<text x="210" y="195" font-size="10" fill="#dc2626" font-weight="500">verrou ↓</text>
<text x="160" y="390" text-anchor="middle" font-size="12" fill="#78716c">Coin haut-droit → un petit triangle dépasse</text>
</svg>
