<svg xmlns="http://www.w3.org/2000/svg" viewBox="0 0 320 400" fill="none" font-family="system-ui,-apple-system,sans-serif">
<defs>
  <filter id="ps" x="-10%" y="-10%" width="120%" height="120%">
    <feGaussianBlur in="SourceAlpha" stdDeviation="3"/>
    <feOffset dx="0" dy="3"/>
    <feComponentTransfer><feFuncA type="linear" slope="0.18"/></feComponentTransfer>
    <feMerge><feMergeNode/><feMergeNode in="SourceGraphic"/></feMerge>
  </filter>
  <marker id="arr" viewBox="0 0 10 10" refX="8" refY="5" markerWidth="6" markerHeight="6" orient="auto-start-reverse">
    <path d="M 0 0 L 10 5 L 0 10 z" fill="#6366f1"/>
  </marker>
  <marker id="arrT" viewBox="0 0 10 10" refX="8" refY="5" markerWidth="6" markerHeight="6" orient="auto-start-reverse">
    <path d="M 0 0 L 10 5 L 0 10 z" fill="#14b8a6"/>
  </marker>
  <linearGradient id="foldTri" x1="0" y1="0" x2="1" y2="1">
    <stop offset="0" stop-color="#fff7ed"/>
    <stop offset="1" stop-color="#fed7aa" stop-opacity="0.7"/>
  </linearGradient>
  <linearGradient id="bWingL" x1="0.5" y1="0" x2="0.2" y2="1">
    <stop offset="0" stop-color="hsl(32, 50%, 58%)"/>
    <stop offset="0.55" stop-color="hsl(32, 55%, 43%)"/>
    <stop offset="1" stop-color="hsl(32, 60%, 28%)"/>
  </linearGradient>
  <linearGradient id="bWingR" x1="0.5" y1="0" x2="0.8" y2="1">
    <stop offset="0" stop-color="hsl(32, 55%, 43%)"/>
    <stop offset="0.5" stop-color="hsl(32, 60%, 32%)"/>
    <stop offset="1" stop-color="hsl(32, 65%, 20%)"/>
  </linearGradient>
</defs>

<polygon points="80,90 240,90 240,370 80,370" fill="#fefaf4" stroke="#d6c9ae" stroke-width="1.5" filter="url(#ps)"/>
<line x1="160" y1="90" x2="160" y2="370" stroke="#a8a29e" stroke-width="1" stroke-dasharray="3 3" stroke-linecap="round" opacity="0.7"/>
<!-- Both TL and TR folded, muted -->
<polygon points="80,90 160,90 160,170" fill="url(#foldTri)" stroke="#c4a07c" stroke-width="1" opacity="0.9"/>
<polygon points="240,90 160,90 160,170" fill="url(#foldTri)" stroke="#c4a07c" stroke-width="1" opacity="0.9"/>
<line x1="80" y1="90" x2="160" y2="170" stroke="#c4a07c" stroke-width="1"/>
<line x1="240" y1="90" x2="160" y2="170" stroke="#c4a07c" stroke-width="1"/>
<!-- Protruding triangle (to be locked) -->
<polygon points="148,170 172,170 160,195" fill="#fef3c7" stroke="#c4a07c" stroke-width="1.2"/>
<!-- Mountain fold line at base of triangle (will fold up) -->
<line x1="148" y1="170" x2="172" y2="170" stroke="#dc2626" stroke-width="2" stroke-dasharray="8 3 2 3" stroke-linecap="round"/>
<!-- Upward arrow -->
<path d="M 160 195 Q 180 180 160 145" stroke="#6366f1" stroke-width="2.5" stroke-linecap="round" fill="none" marker-end="url(#arr)"/>
<text x="160" y="230" text-anchor="middle" font-size="12" fill="#dc2626" font-weight="600">🔒 VERROU</text>
<text x="160" y="390" text-anchor="middle" font-size="12" fill="#78716c">Replie le triangle vers le haut — verrouillé !</text>
</svg>
