<svg xmlns="http://www.w3.org/2000/svg" viewBox="0 0 400 320" fill="none">
  <defs>
    <linearGradient id="hammer-lw" x1="0.5" y1="0" x2="0.2" y2="1">
      <stop offset="0" stop-color="#e5e7eb"/>
      <stop offset="0.55" stop-color="#9ca3af"/>
      <stop offset="1" stop-color="#6b7280"/>
    </linearGradient>
    <linearGradient id="hammer-rw" x1="0.5" y1="0" x2="0.8" y2="1">
      <stop offset="0" stop-color="#9ca3af"/>
      <stop offset="0.5" stop-color="#6b7280"/>
      <stop offset="1" stop-color="#374151"/>
    </linearGradient>
    <filter id="hammer-sh" x="-20%" y="-20%" width="140%" height="140%">
      <feGaussianBlur in="SourceAlpha" stdDeviation="4"/>
      <feOffset dx="3" dy="5"/>
      <feComponentTransfer><feFuncA type="linear" slope="0.35"/></feComponentTransfer>
      <feMerge><feMergeNode/><feMergeNode in="SourceGraphic"/></feMerge>
    </filter>
  </defs>

  <ellipse cx="200" cy="295" rx="115" ry="9" fill="#1e293b" opacity="0.14"/>

  <g filter="url(#hammer-sh)">
    <polygon points="335,85 55,200 100,250" fill="url(#hammer-lw)"/>
    <polygon points="335,85 100,250 145,305" fill="url(#hammer-rw)"/>

    <line x1="335" y1="85" x2="100" y2="250" stroke="#e5e7eb" stroke-width="2" stroke-linecap="round" opacity="0.85"/>
    <line x1="338" y1="87" x2="103" y2="252" stroke="#374151" stroke-width="0.8" stroke-linecap="round" opacity="0.55"/>

    <line x1="230" y1="125" x2="250" y2="150" stroke="#374151" stroke-width="1" stroke-linecap="round" opacity="0.55"/>
    <line x1="250" y1="150" x2="265" y2="185" stroke="#111827" stroke-width="1" stroke-linecap="round" opacity="0.5"/>

    <line x1="55" y1="200" x2="100" y2="250" stroke="#374151" stroke-width="1.2" stroke-linecap="round" opacity="0.45"/>
    <line x1="100" y1="250" x2="145" y2="305" stroke="#111827" stroke-width="1.2" stroke-linecap="round" opacity="0.5"/>

    <circle cx="335" cy="85" r="2.2" fill="#ffffff" opacity="0.9"/>

    <polygon points="335,85 313,99 329,103" fill="#111827" opacity="0.55"/>
  </g>
</svg>
