<svg xmlns="http://www.w3.org/2000/svg" viewBox="0 0 400 320" fill="none">
  <defs>
    <linearGradient id="ninja-star-lw" x1="0.5" y1="0" x2="0.2" y2="1">
      <stop offset="0" stop-color="#c7d2fe"/>
      <stop offset="0.55" stop-color="#4338ca"/>
      <stop offset="1" stop-color="#3730a3"/>
    </linearGradient>
    <linearGradient id="ninja-star-rw" x1="0.5" y1="0" x2="0.8" y2="1">
      <stop offset="0" stop-color="#4338ca"/>
      <stop offset="0.5" stop-color="#3730a3"/>
      <stop offset="1" stop-color="#1e1b4b"/>
    </linearGradient>
    <filter id="ninja-star-sh" x="-20%" y="-20%" width="140%" height="140%">
      <feGaussianBlur in="SourceAlpha" stdDeviation="4"/>
      <feOffset dx="3" dy="5"/>
      <feComponentTransfer><feFuncA type="linear" slope="0.35"/></feComponentTransfer>
      <feMerge><feMergeNode/><feMergeNode in="SourceGraphic"/></feMerge>
    </filter>
  </defs>

  <ellipse cx="200" cy="295" rx="115" ry="9" fill="#1e293b" opacity="0.14"/>

  <g filter="url(#ninja-star-sh)">
    <polygon points="325,115 70,190 125,235" fill="url(#ninja-star-lw)"/>
    <polygon points="325,115 125,235 185,290" fill="url(#ninja-star-rw)"/>

    <line x1="325" y1="115" x2="125" y2="235" stroke="#c7d2fe" stroke-width="2" stroke-linecap="round" opacity="0.85"/>
    <line x1="328" y1="117" x2="128" y2="237" stroke="#1e1b4b" stroke-width="0.8" stroke-linecap="round" opacity="0.55"/>

    <line x1="235" y1="145" x2="220" y2="170" stroke="#1e1b4b" stroke-width="1" stroke-linecap="round" opacity="0.55"/>
    <line x1="220" y1="170" x2="200" y2="195" stroke="#0a0824" stroke-width="1" stroke-linecap="round" opacity="0.5"/>

    <line x1="70" y1="190" x2="125" y2="235" stroke="#1e1b4b" stroke-width="1.2" stroke-linecap="round" opacity="0.45"/>
    <line x1="125" y1="235" x2="185" y2="290" stroke="#0a0824" stroke-width="1.2" stroke-linecap="round" opacity="0.5"/>

    <circle cx="325" cy="115" r="2.2" fill="#ffffff" opacity="0.9"/>

    <polygon points="280,155 295,145 285,170" fill="#4338ca" opacity="0.65"/>
          <polygon points="80,250 65,265 95,270" fill="#3730a3" opacity="0.55"/>
  </g>
</svg>
