<svg xmlns="http://www.w3.org/2000/svg" viewBox="0 0 320 400" fill="none" font-family="system-ui,-apple-system,sans-serif">
<defs>
  <filter id="ps" x="-10%" y="-10%" width="120%" height="120%">
    <feGaussianBlur in="SourceAlpha" stdDeviation="3"/>
    <feOffset dx="0" dy="3"/>
    <feComponentTransfer><feFuncA type="linear" slope="0.18"/></feComponentTransfer>
    <feMerge><feMergeNode/><feMergeNode in="SourceGraphic"/></feMerge>
  </filter>
  <marker id="arr" viewBox="0 0 10 10" refX="8" refY="5" markerWidth="6" markerHeight="6" orient="auto-start-reverse">
    <path d="M 0 0 L 10 5 L 0 10 z" fill="#6366f1"/>
  </marker>
  <marker id="arrT" viewBox="0 0 10 10" refX="8" refY="5" markerWidth="6" markerHeight="6" orient="auto-start-reverse">
    <path d="M 0 0 L 10 5 L 0 10 z" fill="#14b8a6"/>
  </marker>
  <linearGradient id="foldTri" x1="0" y1="0" x2="1" y2="1">
    <stop offset="0" stop-color="#fff7ed"/>
    <stop offset="1" stop-color="#fed7aa" stop-opacity="0.7"/>
  </linearGradient>
</defs>

<g>
  <path d="M 80 55 Q 160 25 240 55" stroke="#14b8a6" stroke-width="2.2" stroke-linecap="round" fill="none" marker-end="url(#arrT)"/>
  <text x="160" y="80" text-anchor="middle" font-size="11" font-weight="500" fill="#0f766e" letter-spacing="0.8">RETOURNE</text>
</g>
<rect x="30" y="110" width="260" height="180" rx="3" fill="#fefaf4" stroke="#d6c9ae" stroke-width="1.5" filter="url(#ps)"/>
<path d="M34 120 L34 114 L40 114" stroke="#d6c9ae" stroke-width="1.2" stroke-linecap="round"/>
<path d="M280 114 L286 114 L286 120" stroke="#d6c9ae" stroke-width="1.2" stroke-linecap="round"/>
<path d="M34 280 L34 286 L40 286" stroke="#d6c9ae" stroke-width="1.2" stroke-linecap="round"/>
<path d="M280 286 L286 286 L286 280" stroke="#d6c9ae" stroke-width="1.2" stroke-linecap="round"/>
<line x1="30" y1="200" x2="290" y2="200" stroke="#a8a29e" stroke-width="1" stroke-dasharray="3 3" stroke-linecap="round" opacity="0.7"/>
<text x="160" y="390" text-anchor="middle" font-size="12" fill="#78716c">Retourne la feuille</text>
</svg>
