<svg xmlns="http://www.w3.org/2000/svg" viewBox="0 0 320 400" fill="none" font-family="system-ui,-apple-system,sans-serif">
<defs>
  <filter id="ps" x="-10%" y="-10%" width="120%" height="120%">
    <feGaussianBlur in="SourceAlpha" stdDeviation="3"/>
    <feOffset dx="0" dy="3"/>
    <feComponentTransfer><feFuncA type="linear" slope="0.18"/></feComponentTransfer>
    <feMerge><feMergeNode/><feMergeNode in="SourceGraphic"/></feMerge>
  </filter>
  <marker id="arr" viewBox="0 0 10 10" refX="8" refY="5" markerWidth="6" markerHeight="6" orient="auto-start-reverse">
    <path d="M 0 0 L 10 5 L 0 10 z" fill="#6366f1"/>
  </marker>
  <marker id="arrT" viewBox="0 0 10 10" refX="8" refY="5" markerWidth="6" markerHeight="6" orient="auto-start-reverse">
    <path d="M 0 0 L 10 5 L 0 10 z" fill="#14b8a6"/>
  </marker>
  <linearGradient id="foldTri" x1="0" y1="0" x2="1" y2="1">
    <stop offset="0" stop-color="#fff7ed"/>
    <stop offset="1" stop-color="#fed7aa" stop-opacity="0.7"/>
  </linearGradient>
<linearGradient id="pWingL" x1="0.5" y1="0" x2="0.2" y2="1">
    <stop offset="0" stop-color="hsl(28, 23%, 58%)"/>
    <stop offset="0.55" stop-color="hsl(28, 25%, 43%)"/>
    <stop offset="1" stop-color="hsl(28, 26%, 28%)"/>
  </linearGradient>
  <linearGradient id="pWingR" x1="0.5" y1="0" x2="0.8" y2="1">
    <stop offset="0" stop-color="hsl(28, 25%, 43%)"/>
    <stop offset="0.5" stop-color="hsl(28, 26%, 32%)"/>
    <stop offset="1" stop-color="hsl(28, 28%, 20%)"/>
  </linearGradient></defs>
<ellipse cx="160" cy="345" rx="100" ry="7" fill="#1e293b" opacity="0.13"/>
<polygon points="160,50 40,280 155,280" fill="url(#pWingL)"/>
<polygon points="160,50 165,280 280,280" fill="url(#pWingR)"/>
<line x1="160" y1="50" x2="160" y2="280" stroke="hsl(28, 13%, 82%)" stroke-width="2.5" stroke-linecap="round" opacity="0.9"/>
<circle cx="160" cy="50" r="2.5" fill="#fff5f5" opacity="0.9"/>
<path d="M 55 275 Q 160 300 265 275" stroke="#14b8a6" stroke-width="1.5" stroke-dasharray="4 3" fill="none" stroke-linecap="round" opacity="0.7"/>
<text x="160" y="315" text-anchor="middle" font-size="10" fill="#0f766e" font-weight="500" letter-spacing="1">LÉGER V</text>
<text x="160" y="375" text-anchor="middle" font-size="15" font-weight="700" fill="#0f766e" letter-spacing="0.5">Prêt à voler !</text>
<path d="M 40 280 L 25 255" stroke="hsl(28, 25%, 25%)" stroke-width="2.5" stroke-linecap="round"/>
<path d="M 280 280 L 295 255" stroke="hsl(28, 25%, 25%)" stroke-width="2.5" stroke-linecap="round"/>
<path d="M 60 280 L 55 270 L 50 280 L 45 270 L 40 280" stroke="hsl(28, 25%, 20%)" stroke-width="1.8" fill="none"/>
<path d="M 260 280 L 265 270 L 270 280 L 275 270 L 280 280" stroke="hsl(28, 25%, 20%)" stroke-width="1.8" fill="none"/>
<text x="160" y="338" text-anchor="middle" font-size="11" fill="#0f766e" font-weight="700">Condor prêt — lance d'en haut !</text>
</svg>
