<svg xmlns="http://www.w3.org/2000/svg" viewBox="0 0 320 400" fill="none" font-family="system-ui,-apple-system,sans-serif">
<defs>
  <filter id="ps" x="-10%" y="-10%" width="120%" height="120%">
    <feGaussianBlur in="SourceAlpha" stdDeviation="3"/>
    <feOffset dx="0" dy="3"/>
    <feComponentTransfer><feFuncA type="linear" slope="0.18"/></feComponentTransfer>
    <feMerge><feMergeNode/><feMergeNode in="SourceGraphic"/></feMerge>
  </filter>
  <marker id="arr" viewBox="0 0 10 10" refX="8" refY="5" markerWidth="6" markerHeight="6" orient="auto-start-reverse">
    <path d="M 0 0 L 10 5 L 0 10 z" fill="#6366f1"/>
  </marker>
  <marker id="arrT" viewBox="0 0 10 10" refX="8" refY="5" markerWidth="6" markerHeight="6" orient="auto-start-reverse">
    <path d="M 0 0 L 10 5 L 0 10 z" fill="#14b8a6"/>
  </marker>
  <linearGradient id="foldTri" x1="0" y1="0" x2="1" y2="1">
    <stop offset="0" stop-color="#fff7ed"/>
    <stop offset="1" stop-color="#fed7aa" stop-opacity="0.7"/>
  </linearGradient>
</defs>

<rect x="80" y="30" width="160" height="340" rx="3" fill="#fefaf4" stroke="#d6c9ae" stroke-width="1.5" filter="url(#ps)"/>
<path d="M84 40 L84 34 L90 34" stroke="#d6c9ae" stroke-width="1.2" stroke-linecap="round"/>
<path d="M230 34 L236 34 L236 40" stroke="#d6c9ae" stroke-width="1.2" stroke-linecap="round"/>
<path d="M84 360 L84 366 L90 366" stroke="#d6c9ae" stroke-width="1.2" stroke-linecap="round"/>
<path d="M230 366 L236 366 L236 360" stroke="#d6c9ae" stroke-width="1.2" stroke-linecap="round"/>
<line x1="160" y1="30" x2="160" y2="370" stroke="#a8a29e" stroke-width="1" stroke-dasharray="3 3" stroke-linecap="round" opacity="0.7"/>
<line x1="80" y1="200" x2="240" y2="200" stroke="#a8a29e" stroke-width="1.2" stroke-dasharray="4 3" stroke-linecap="round" opacity="0.85"/>
<path d="M 95 275 Q 80 200 95 125" stroke="#6366f1" stroke-width="2.5" stroke-linecap="round" fill="none" marker-end="url(#arr)"/>
<circle cx="160" cy="200" r="3" fill="#dc2626" opacity="0.7"/>
<text x="160" y="390" text-anchor="middle" font-size="12" fill="#78716c">Plie en largeur aussi — croix de plis</text>
</svg>
